<svg xmlns="http://www.w3.org/2000/svg" viewBox="0 0 240 48" fill="none" role="img" aria-label="Logo Colegio Piloto">
  <rect width="240" height="48" fill="transparent"/>
  <circle cx="24" cy="24" r="18" fill="#1e40af"/>
  <path d="M18 30 24 18 30 30H18z" fill="#ffffff"/>
  <path d="M58.90 30.18Q57.18 30.18 55.82 29.38Q54.47 28.58 53.69 27.07Q52.91 25.57 52.91 23.46Q52.91 21.34 53.69 19.84Q54.48 18.33 55.84 17.53Q57.19 16.73 58.90 16.73Q59.97 16.73 60.91 17.03Q61.84 17.33 62.58 17.92Q63.31 18.50 63.79 19.35Q64.26 20.19 64.42 21.26L62.05 21.26Q61.94 20.67 61.66 20.23Q61.39 19.78 60.97 19.47Q60.56 19.15 60.04 18.99Q59.52 18.83 58.93 18.83Q57.86 18.83 57.03 19.37Q56.20 19.91 55.73 20.94Q55.26 21.98 55.26 23.46Q55.26 24.96 55.74 25.99Q56.21 27.02 57.04 27.55Q57.87 28.08 58.93 28.08Q59.51 28.08 60.03 27.91Q60.55 27.75 60.97 27.44Q61.39 27.13 61.67 26.67Q61.95 26.22 62.05 25.64L64.43 25.64Q64.30 26.58 63.85 27.40Q63.41 28.22 62.69 28.85Q61.97 29.47 61.01 29.82Q60.06 30.18 58.90 30.18ZM70.74 30.20Q69.31 30.20 68.25 29.56Q67.20 28.93 66.62 27.79Q66.04 26.65 66.04 25.14Q66.04 23.61 66.62 22.46Q67.20 21.32 68.25 20.68Q69.31 20.05 70.74 20.05Q72.18 20.05 73.23 20.68Q74.29 21.32 74.86 22.46Q75.44 23.61 75.44 25.14Q75.44 26.65 74.86 27.79Q74.29 28.93 73.23 29.56Q72.18 30.20 70.74 30.20ZM70.74 28.35Q71.54 28.35 72.07 27.92Q72.60 27.49 72.86 26.76Q73.12 26.03 73.12 25.13Q73.12 24.23 72.86 23.50Q72.60 22.77 72.07 22.34Q71.54 21.91 70.74 21.91Q69.94 21.91 69.42 22.34Q68.89 22.77 68.63 23.49Q68.37 24.22 68.37 25.13Q68.37 26.03 68.63 26.76Q68.89 27.49 69.42 27.92Q69.94 28.35 70.74 28.35ZM79.72 16.90L79.72 30.00L77.44 30.00L77.44 16.90ZM86.49 30.20Q85.00 30.20 83.94 29.58Q82.87 28.95 82.29 27.82Q81.72 26.69 81.72 25.15Q81.72 23.63 82.28 22.49Q82.85 21.34 83.89 20.70Q84.93 20.05 86.34 20.05Q87.24 20.05 88.05 20.34Q88.86 20.63 89.49 21.24Q90.12 21.84 90.47 22.78Q90.83 23.72 90.83 25.01L90.83 25.73L82.80 25.73L82.80 24.17L89.70 24.17L88.62 24.63Q88.62 23.80 88.37 23.18Q88.11 22.55 87.61 22.20Q87.10 21.84 86.35 21.84Q85.59 21.84 85.06 22.20Q84.54 22.56 84.26 23.15Q83.98 23.74 83.98 24.47L83.98 25.54Q83.98 26.48 84.30 27.12Q84.62 27.76 85.19 28.08Q85.76 28.41 86.51 28.41Q87.02 28.41 87.42 28.26Q87.83 28.12 88.13 27.83Q88.43 27.55 88.58 27.13L90.68 27.57Q90.44 28.36 89.87 28.95Q89.30 29.54 88.44 29.87Q87.59 30.20 86.49 30.20ZM97.03 33.88Q95.85 33.88 94.97 33.59Q94.10 33.29 93.54 32.77Q92.98 32.26 92.74 31.61L94.67 30.91Q94.83 31.19 95.11 31.48Q95.38 31.77 95.84 31.96Q96.31 32.14 97.02 32.14Q98.08 32.14 98.72 31.65Q99.36 31.15 99.36 30.10L99.36 28.24L99.17 28.24Q99.00 28.59 98.68 28.97Q98.35 29.34 97.80 29.60Q97.25 29.85 96.40 29.85Q95.28 29.85 94.36 29.32Q93.44 28.79 92.90 27.72Q92.36 26.66 92.36 25.06Q92.36 23.44 92.90 22.33Q93.45 21.21 94.37 20.63Q95.29 20.05 96.42 20.05Q97.29 20.05 97.85 20.34Q98.42 20.63 98.75 21.04Q99.08 21.45 99.26 21.80L99.38 21.80L99.38 20.17L101.62 20.17L101.62 30.03Q101.62 31.34 101.03 32.19Q100.43 33.05 99.39 33.47Q98.35 33.88 97.03 33.88ZM97.04 28.05Q97.79 28.05 98.31 27.69Q98.83 27.34 99.10 26.66Q99.37 25.98 99.37 25.04Q99.37 24.11 99.10 23.41Q98.84 22.71 98.32 22.32Q97.80 21.93 97.04 21.93Q96.27 21.93 95.75 22.34Q95.22 22.75 94.96 23.45Q94.70 24.15 94.70 25.04Q94.70 25.95 94.97 26.63Q95.23 27.30 95.76 27.68Q96.28 28.05 97.04 28.05ZM104.05 30.00L104.05 20.17L106.33 20.17L106.33 30.00ZM105.19 18.79Q104.65 18.79 104.26 18.42Q103.86 18.05 103.86 17.54Q103.86 17.01 104.26 16.65Q104.65 16.28 105.19 16.28Q105.75 16.28 106.14 16.65Q106.53 17.01 106.53 17.53Q106.53 18.05 106.14 18.42Q105.75 18.79 105.19 18.79ZM113.02 30.20Q111.59 30.20 110.54 29.56Q109.48 28.93 108.90 27.79Q108.33 26.65 108.33 25.14Q108.33 23.61 108.90 22.46Q109.48 21.32 110.54 20.68Q111.59 20.05 113.02 20.05Q114.46 20.05 115.52 20.68Q116.57 21.32 117.15 22.46Q117.72 23.61 117.72 25.14Q117.72 26.65 117.15 27.79Q116.57 28.93 115.52 29.56Q114.46 30.20 113.02 30.20ZM113.02 28.35Q113.82 28.35 114.35 27.92Q114.89 27.49 115.15 26.76Q115.40 26.03 115.15 23.50Q114.89 22.77 114.35 22.34Q113.82 21.91 113.02 21.91Q112.22 21.91 111.70 22.34Q111.18 22.77 110.92 23.49Q110.66 24.22 110.66 25.13Q110.66 26.03 110.92 26.76Q111.18 27.49 111.70 27.92Q112.22 28.35 113.02 28.35ZM124.36 30.00L124.36 16.90L129.26 16.90Q130.76 16.90 131.79 17.47Q132.82 18.03 133.34 19.01Q133.87 19.99 133.87 21.24Q133.87 22.49 133.34 23.47Q132.81 24.45 131.77 25.01Q130.73 25.57 129.22 25.57L125.98 25.57L125.98 23.64L128.91 23.64Q129.80 23.64 130.37 23.33Q130.93 23.02 131.20 22.48Q131.47 21.93 131.47 21.24Q131.47 20.54 131.20 20.01Q130.93 19.47 130.36 19.17Q129.79 18.87 128.90 18.87L126.71 18.87L126.71 30.00ZM135.87 30.00L135.87 20.17L138.15 20.17L138.15 30.00ZM137.01 18.79Q136.46 18.79 136.07 18.42Q135.68 18.05 135.68 17.54Q135.68 17.01 136.07 16.65Q136.46 16.28 137.01 16.28Q137.56 16.28 137.95 16.65Q138.34 17.01 138.34 17.53Q138.34 18.05 137.95 18.42Q137.56 18.79 137.01 18.79ZM142.86 16.90L142.86 30.00L140.58 30.00L140.58 16.90ZM149.55 30.20Q148.12 30.20 147.06 29.56Q146.01 28.93 145.43 27.79Q144.86 26.65 144.86 25.14Q144.86 23.61 145.43 22.46Q146.01 21.32 147.06 20.68Q148.12 20.05 149.55 20.05Q150.99 20.05 152.05 20.68Q153.10 21.32 153.68 22.46Q154.25 23.61 154.25 25.14Q154.25 26.65 153.68 27.79Q153.10 28.93 152.05 29.56Q150.99 30.20 149.55 30.20ZM149.55 28.35Q150.35 28.35 150.88 27.92Q151.41 27.49 151.67 26.76Q151.93 26.03 151.93 25.13Q151.93 24.23 151.67 23.50Q151.41 22.77 150.88 22.34Q150.35 21.91 149.55 21.91Q148.75 21.91 148.23 22.34Q147.70 22.77 147.44 23.49Q147.19 24.22 147.19 25.13Q147.19 26.03 147.44 26.76Q147.70 27.49 148.23 27.92Q148.75 28.35 149.55 28.35ZM160.79 20.17L160.79 21.97L155.21 21.97L155.21 20.17ZM156.61 17.84L158.89 17.84L158.89 27.23Q158.89 27.77 159.12 28.02Q159.35 28.27 159.87 28.27Q160.03 28.27 160.29 28.23Q160.54 28.19 160.70 28.15L161.06 29.92Q160.69 30.04 160.29 30.08Q159.89 30.13 159.53 30.13Q158.12 30.13 157.36 29.43Q156.61 28.73 156.61 27.42ZM166.86 30.20Q165.43 30.20 164.38 29.56Q163.32 28.93 162.75 27.79Q162.17 26.65 162.17 25.14Q162.17 23.61 162.75 22.46Q163.32 21.32 164.38 20.68Q165.43 20.05 166.86 20.05Q168.31 20.05 169.36 20.68Q170.42 21.32 170.99 22.46Q171.57 23.61 171.57 25.14Q171.57 26.65 170.99 27.79Q170.42 28.93 169.36 29.56Q168.31 30.20 166.86 30.20ZM166.86 28.35Q167.66 28.35 168.20 27.92Q168.73 27.49 168.99 26.76Q169.25 26.03 169.25 25.13Q169.25 24.23 168.99 23.50Q168.73 22.77 168.20 22.34Q167.66 21.91 166.86 21.91Q166.06 21.91 165.54 22.34Q165.02 22.77 164.76 23.49Q164.50 24.22 164.50 25.13Q164.50 26.03 164.76 26.76Q165.02 27.49 165.54 27.92Q166.06 28.35 166.86 28.35Z" fill="#1e293b"/>
</svg>